PathFileType	4	(X/Y/Z)	C:\Users\WrightLab\Desktop\Jo\P5V23.trc
DataRate	CameraRate	NumFrames	NumMarkers	Units	OrigDataRate	OrigDataStartFrame	OrigNumFrames
100.00	100.00	       18	19	mm	100.00	278	       739
Frame#	Time	Headset_Front			Headset_Back			Headset_Left			Headset_Right			Left_Shoulder			Right_Shoulder			Sternum			C7			Left Elbow			Right Elbow			Left Wrist			Right Wrist			Left ASIS			Right ASIS			S2			Left Knee			Right Knee			Left Ankle			Right Ankle			
		X1	Y1	Z1	X2	Y2	Z2	X3	Y3	Z3	X4	Y4	Z4	X5	Y5	Z5	X6	Y6	Z6	X7	Y7	Z7	X8	Y8	Z8	X9	Y9	Z9	X10	Y10	Z10	X11	Y11	Z11	X12	Y12	Z12	X13	Y13	Z13	X14	Y14	Z14	X15	Y15	Z15	X16	Y16	Z16	X17	Y17	Z17	X18	Y18	Z18	X19	Y19	Z19	

278	2.770	-470.32303	1418.70447	-975.49182	-2.39918	1220.15601	-1170.31104																-336.29089	1494.41479	-1156.84045				-522.50885	1161.15051	-899.00720	-28.55140	1352.63293	-713.79602	-388.58121	1162.56763	-693.99780	-122.27119	901.08386	-1003.96790	-389.39661	915.38098	-922.26514	-290.47476	943.99139	-1245.53674	-142.79161	464.06439	-1045.99988	-386.24268	519.68195	-805.42889	-221.63727	66.31776	-1245.96729	-440.57452	99.22186	-804.76801	
279	2.780				-2.85570	1220.58459	-1168.25549																-336.94797	1493.90076	-1151.27441				-521.47937	1160.58936	-892.15912	-29.28446	1352.16907	-708.78821	-387.80896	1161.75549	-687.03607	-122.22499	900.39032	-1001.46783	-388.57385	914.65918	-918.12323	-291.68695	943.58136	-1240.36682	-143.95001	463.40128	-1042.24939	-387.84204	518.67700	-800.89453	-221.09120	67.80978	-1242.82068	-441.43695	100.41261	-790.07452	
280	2.790				-2.62901	1217.83435	-1158.63379																-337.75967	1493.42090	-1145.96912				-521.77557	1160.14221	-885.40253	-29.98375	1352.07703	-705.18768	-386.65405	1160.66077	-680.19189	-121.49550	899.07794	-998.88922	-387.86145	913.22302	-912.80560	-293.16937	943.34229	-1234.81042	-145.06639	463.07260	-1038.64514	-389.55777	517.82593	-794.27191	-223.02824	67.86242	-1244.39294	-439.96884	100.18371	-775.76135	
281	2.800				-3.20991	1218.23535	-1156.67725							-376.04535	1528.22437	-829.97107	-468.05823	1416.35596	-956.02667				-338.51312	1492.94397	-1140.41113				-520.73969	1159.57422	-877.43207	-30.31552	1351.82019	-701.34912	-385.12061	1160.13794	-672.71027	-121.83656	898.28656	-995.14960	-387.38657	912.76038	-907.88977	-294.65356	943.09564	-1229.13269	-146.13762	461.94113	-1035.52576	-390.37000	517.93951	-788.66284	-224.51472	66.97343	-1245.80261	-440.22375	99.90157	-763.49194	
282	2.810				-4.53835	1218.34717	-1154.53076							-375.11642	1527.11389	-823.04211	-468.61560	1415.22766	-949.83417				-339.34073	1492.11108	-1134.54529				-519.69849	1159.30774	-869.87988	-30.13564	1350.17969	-693.59619	-383.82358	1159.15662	-665.08258	-120.46355	897.14355	-992.29724	-387.40573	911.99133	-902.53119	-296.12650	942.46320	-1222.32153	-146.94762	461.11713	-1032.02368	-391.29575	517.34045	-782.22644	-224.51472	66.97343	-1245.80261	-440.53479	101.16390	-750.18817	
283	2.820				-5.19905	1217.27087	-1149.21399							-374.54041	1526.06885	-817.15479	-467.47687	1414.36768	-942.60175				-340.13522	1491.37720	-1128.40649				-518.95911	1158.18835	-862.30078	-30.92961	1350.01392	-689.94617	-382.74310	1158.04175	-657.78674	-120.38790	896.23328	-988.49719	-385.99362	911.59338	-896.25299	-297.86664	941.89667	-1216.73816	-147.48033	460.62128	-1027.41675	-392.14420	516.66272	-777.25220	-224.35211	69.24010	-1244.12817	-439.98987	101.50664	-738.44403	
284	2.830	-255.62991	1432.77722	-775.69434	-6.46824	1216.02417	-1143.21997							-373.93030	1525.28491	-811.52826	-465.95627	1412.49890	-935.60492				-341.08038	1490.37024	-1122.00928				-518.26288	1158.14307	-853.81287	-31.94527	1350.15063	-687.59814	-381.33521	1157.18530	-649.47394	-120.89019	895.16772	-984.35205	-385.80179	909.38159	-892.53497	-299.61478	941.26611	-1210.52344	-146.90904	460.19836	-1022.70374	-393.51801	516.12903	-771.56866	-224.99811	69.15160	-1244.55994	-439.90787	102.53928	-727.63794	
285	2.840	-253.20631	1431.49255	-767.19238	-7.38150	1216.31787	-1141.66687										-466.67209	1412.04346	-929.28162				-342.01147	1489.60400	-1116.08264				-516.71448	1156.55530	-845.08746	-32.41445	1349.23401	-681.87091	-379.87183	1155.68530	-641.56848	-120.15599	894.73187	-981.17108	-385.85898	908.96973	-885.16144	-301.21567	939.98590	-1203.20349	-146.61655	459.38464	-1018.76947	-394.20880	515.73315	-765.39453	-224.60423	70.39748	-1242.82324	-440.30951	102.54684	-715.74854	
286	2.850	-252.94931	1429.94592	-762.73065	-8.22506	1214.86548	-1135.53223										-466.47775	1411.23474	-922.21912				-343.02600	1488.74915	-1109.68945				-516.14935	1155.88000	-837.08929	-33.48659	1348.67566	-677.35095	-378.80612	1155.20325	-633.14642	-121.27040	892.21558	-976.79657	-384.41144	908.99933	-878.85675	-302.63651	939.69781	-1197.12573	-147.67479	457.67355	-1014.22217	-395.50943	515.19867	-759.03796	-224.86205	70.79440	-1242.98132	-439.63837	102.32751	-705.27484	
287	2.860	-250.84369	1429.06799	-755.07178	-9.73913	1213.97900	-1130.36560										-465.87775	1409.94055	-914.90143				-343.95236	1488.20923	-1103.66187				-515.09625	1156.06128	-829.37079	-34.48537	1348.54688	-673.98242	-376.35156	1154.32324	-625.43408	-120.45743	892.08173	-972.85132	-385.19183	906.48505	-871.97571	-303.97470	939.35596	-1191.04907	-147.74623	456.86920	-1009.80035	-396.76874	514.21075	-752.53571	-225.32031	71.57286	-1243.34485	-439.49402	102.33781	-695.22791	
288	2.870	-249.41808	1428.99255	-747.90485	-11.40688	1214.07556	-1128.20703										-465.10187	1409.30225	-907.72260				-344.95941	1487.40906	-1097.06384				-515.21857	1155.44421	-819.93854	-14.19672	1381.20288	-712.00079	-375.85129	1153.45923	-617.02997	-121.03302	891.00171	-968.42914	-385.11145	906.46600	-864.04034	-305.31720	938.32281	-1183.55151	-147.71770	456.52267	-1005.27081	-397.03467	512.80756	-746.53448	-223.30072	74.01646	-1241.23816	-439.03152	101.76939	-687.25781	
289	2.880	-250.37379	1426.85266	-744.39325	-12.36386	1213.31018	-1123.74023										-465.27948	1408.51111	-900.11255				-346.05048	1486.57117	-1090.41272				-513.96570	1154.39441	-811.43597	-13.72728	1380.73926	-705.30054	-373.60718	1152.38135	-608.07220	-120.45363	890.09344	-963.20874	-385.03577	905.75781	-857.08813	-306.67438	936.98016	-1176.28601	-147.66222	455.97226	-1000.37640	-397.84143	511.52997	-740.19336	-223.26292	74.98683	-1240.04810	-439.57367	100.75269	-679.44843	
290	2.890	-248.69724	1426.38660	-738.03210	-14.04573	1211.76770	-1116.75623										-465.29901	1408.09595	-893.08960				-347.23889	1485.68005	-1083.78040				-513.27283	1154.57581	-801.88348	-12.49207	1379.65979	-697.66772	-371.86908	1151.45728	-599.34650	-120.50740	889.62952	-958.31323	-384.98599	905.65509	-850.59784	-307.99960	936.49200	-1169.88586	-148.13672	454.71774	-994.94855	-398.90872	510.08517	-734.12805	-223.63623	75.41563	-1240.57568	-439.83395	101.04832	-671.83514	
291	2.900	-248.11183	1426.50171	-733.65155	-15.89102	1211.86096	-1114.58020										-465.26590	1407.85461	-885.38202				-348.46527	1484.79248	-1077.02771				-511.69235	1154.77686	-793.64862	-12.00860	1379.49438	-690.75427	-369.89096	1150.79199	-590.72028	-121.04250	888.75714	-952.58875	-385.37161	904.35565	-842.42365	-309.40430	935.62561	-1163.09827	-147.63649	454.47845	-989.81073	-398.86981	507.88287	-727.42426	-224.11877	75.54071	-1240.96826	-439.56647	98.61420	-665.87701	
292	2.910	-247.61057	1425.82947	-726.70355	-16.40797	1209.17346	-1104.76672										-464.71463	1406.42871	-877.30396				-349.65991	1483.87732	-1069.68542				-510.55035	1154.16956	-784.47748	-11.05867	1378.83496	-682.80719	-367.90964	1150.19849	-581.83667	-121.79689	888.54401	-947.41199	-384.95029	903.85620	-834.77234	-310.59482	934.76459	-1155.76538	-146.79581	453.96335	-984.57385	-399.12442	507.56824	-721.90619	-223.46277	77.32250	-1237.20154	-439.99548	97.83326	-661.07977	
293	2.920	-247.34268	1423.88293	-720.99603	-18.89626	1209.60413	-1102.89404										-464.18558	1406.43396	-869.22565				-351.03345	1483.47534	-1063.34717				-509.83459	1154.07727	-775.12781	-10.14432	1378.52771	-676.32086	-366.21219	1149.74524	-573.08704	-122.58118	887.21930	-941.23059	-385.76434	902.76056	-826.87195	-311.81635	933.84509	-1148.45679	-146.99184	453.31378	-980.35840	-399.82037	506.22070	-714.71942	-223.35791	77.79396	-1237.74463	-439.84729	95.53258	-657.38165	
294	2.930	-247.00784	1424.16833	-713.20715	-20.82675	1209.75696	-1100.46204										-463.55688	1405.47925	-860.77557				-352.34787	1482.76465	-1056.01343				-509.50562	1154.08032	-765.58911	-9.21203	1378.46960	-667.95880	-365.24463	1148.09302	-563.91486	-123.61555	886.33331	-935.06165	-386.27029	902.76685	-819.19171	-313.27484	933.16394	-1141.69861	-146.44980	453.16013	-976.83893	-400.19873	504.53030	-707.96887	-224.16382	76.86072	-1239.61206	-439.89471	93.68187	-654.20654	
295	2.940	-245.74742	1424.23926	-705.48926	-22.38197	1207.63538	-1091.67297										-464.72427	1405.11414	-853.12885				-353.86606	1482.01794	-1048.46326				-508.89514	1153.85779	-755.69098	-8.20031	1378.59119	-659.98816	-363.30276	1148.06580	-554.45056	-124.99310	885.57086	-928.30560	-387.00549	902.22888	-810.27209	-314.63531	932.16626	-1134.61206	-146.60580	453.39081	-973.03119	-399.02780	502.46439	-701.56763	-223.28688	78.32546	-1238.63513	-440.75180	91.92210	-651.74463	
